<svg xmlns="http://www.w3.org/2000/svg" width="820" height="460" viewBox="0 0 820 460">
<rect x="0" y="0" width="820" height="460" fill="white" />
<text x="50" y="30" font-size="18" font-family="sans-serif" font-weight="600">decode_2 aten::mm energy breakdown (GEMMCalc vs DeepFlow vs NCU)</text>
<text x="50" y="48" font-size="12" font-family="sans-serif" fill="#444">Energy model: DRAM=2090 pJ/sector, L2=368 pJ/sector, SHMEM=82.1 pJ/32B</text>
<line x1="50" y1="55" x2="50" y2="390" stroke="#333" />
<line x1="50" y1="390" x2="770" y2="390" stroke="#333" />
<line x1="50" y1="55.0" x2="770" y2="55.0" stroke="#eee" />
<text x="42" y="55.0" font-size="10" font-family="monospace" text-anchor="end" dominant-baseline="middle">1.337e+06</text>
<line x1="50" y1="138.75" x2="770" y2="138.75" stroke="#eee" />
<text x="42" y="138.75" font-size="10" font-family="monospace" text-anchor="end" dominant-baseline="middle">1.002e+06</text>
<line x1="50" y1="222.5" x2="770" y2="222.5" stroke="#eee" />
<text x="42" y="222.5" font-size="10" font-family="monospace" text-anchor="end" dominant-baseline="middle">6.683e+05</text>
<line x1="50" y1="306.25" x2="770" y2="306.25" stroke="#eee" />
<text x="42" y="306.25" font-size="10" font-family="monospace" text-anchor="end" dominant-baseline="middle">3.341e+05</text>
<line x1="50" y1="390.0" x2="770" y2="390.0" stroke="#eee" />
<text x="42" y="390.0" font-size="10" font-family="monospace" text-anchor="end" dominant-baseline="middle">0</text>
<rect x="520" y="18" width="12" height="12" fill="#E45756"/>
<text x="538" y="29" font-size="12" font-family="sans-serif">DRAM</text>
<rect x="605" y="18" width="12" height="12" fill="#72B7B2"/>
<text x="623" y="29" font-size="12" font-family="sans-serif">L2</text>
<rect x="690" y="18" width="12" height="12" fill="#54A24B"/>
<text x="708" y="29" font-size="12" font-family="sans-serif">SHMEM</text>
<rect x="130.0" y="169.32635049608413" width="80.0" height="220.67364950391587" fill="#E45756" stroke="none" />
<rect x="130.0" y="130.04228290214039" width="80.0" height="39.28406759394374" fill="#72B7B2" stroke="none" />
<rect x="130.0" y="127.73891870127792" width="80.0" height="2.3033642008624606" fill="#54A24B" stroke="none" />
<rect x="130.0" y="55" width="80.0" height="335" fill="none" stroke="#4C78A8" stroke-width="1.5" />
<text x="170.0" y="412" font-size="12" font-family="sans-serif" text-anchor="middle">GEMMCalc</text>
<text x="170.0" y="47" font-size="11" font-family="monospace" text-anchor="middle" fill="#333">1.046e+06 uJ</text>
<rect x="370.0" y="169.3091853351456" width="80.0" height="220.6908146648544" fill="#E45756" stroke="none" />
<rect x="370.0" y="130.4482985025563" width="80.0" height="38.86088683258931" fill="#72B7B2" stroke="none" />
<rect x="370.0" y="115.19621756089828" width="80.0" height="15.252080941658022" fill="#54A24B" stroke="none" />
<rect x="370.0" y="55" width="80.0" height="335" fill="none" stroke="#9ECAE9" stroke-width="1.5" />
<text x="410.0" y="412" font-size="12" font-family="sans-serif" text-anchor="middle">DeepFlow</text>
<text x="410.0" y="47" font-size="11" font-family="monospace" text-anchor="middle" fill="#333">1.096e+06 uJ</text>
<rect x="610.0" y="173.55326090042527" width="80.0" height="216.44673909957473" fill="#E45756" stroke="none" />
<rect x="610.0" y="115.73356398081779" width="80.0" height="57.81969691960749" fill="#72B7B2" stroke="none" />
<rect x="610.0" y="85.4545454545455" width="80.0" height="30.279018526272303" fill="#54A24B" stroke="none" />
<rect x="610.0" y="55" width="80.0" height="335" fill="none" stroke="#F58518" stroke-width="1.5" />
<text x="650.0" y="412" font-size="12" font-family="sans-serif" text-anchor="middle">NCU</text>
<text x="650.0" y="47" font-size="11" font-family="monospace" text-anchor="middle" fill="#333">1.215e+06 uJ</text>
</svg>