<svg xmlns="http://www.w3.org/2000/svg" width="820" height="460" viewBox="0 0 820 460">
<rect x="0" y="0" width="820" height="460" fill="white" />
<text x="50" y="30" font-size="18" font-family="sans-serif" font-weight="600">combined aten::mm energy breakdown (GEMMCalc vs DeepFlow vs NCU)</text>
<text x="50" y="48" font-size="12" font-family="sans-serif" fill="#444">Energy model: DRAM=2090 pJ/sector, L2=368 pJ/sector, SHMEM=82.1 pJ/32B</text>
<line x1="50" y1="55" x2="50" y2="390" stroke="#333" />
<line x1="50" y1="390" x2="770" y2="390" stroke="#333" />
<line x1="50" y1="55.0" x2="770" y2="55.0" stroke="#eee" />
<text x="42" y="55.0" font-size="10" font-family="monospace" text-anchor="end" dominant-baseline="middle">6.165e+06</text>
<line x1="50" y1="138.75" x2="770" y2="138.75" stroke="#eee" />
<text x="42" y="138.75" font-size="10" font-family="monospace" text-anchor="end" dominant-baseline="middle">4.624e+06</text>
<line x1="50" y1="222.5" x2="770" y2="222.5" stroke="#eee" />
<text x="42" y="222.5" font-size="10" font-family="monospace" text-anchor="end" dominant-baseline="middle">3.083e+06</text>
<line x1="50" y1="306.25" x2="770" y2="306.25" stroke="#eee" />
<text x="42" y="306.25" font-size="10" font-family="monospace" text-anchor="end" dominant-baseline="middle">1.541e+06</text>
<line x1="50" y1="390.0" x2="770" y2="390.0" stroke="#eee" />
<text x="42" y="390.0" font-size="10" font-family="monospace" text-anchor="end" dominant-baseline="middle">0</text>
<rect x="520" y="18" width="12" height="12" fill="#E45756"/>
<text x="538" y="29" font-size="12" font-family="sans-serif">DRAM</text>
<rect x="605" y="18" width="12" height="12" fill="#72B7B2"/>
<text x="623" y="29" font-size="12" font-family="sans-serif">L2</text>
<rect x="690" y="18" width="12" height="12" fill="#54A24B"/>
<text x="708" y="29" font-size="12" font-family="sans-serif">SHMEM</text>
<rect x="130.0" y="195.9267616429022" width="80.0" height="194.0732383570978" fill="#E45756" stroke="none" />
<rect x="130.0" y="118.78592032959583" width="80.0" height="77.14084131330637" fill="#72B7B2" stroke="none" />
<rect x="130.0" y="102.47188913570545" width="80.0" height="16.314031193890376" fill="#54A24B" stroke="none" />
<rect x="130.0" y="55" width="80.0" height="335" fill="none" stroke="#4C78A8" stroke-width="1.5" />
<text x="170.0" y="412" font-size="12" font-family="sans-serif" text-anchor="middle">GEMMCalc</text>
<text x="170.0" y="47" font-size="11" font-family="monospace" text-anchor="middle" fill="#333">5.291e+06 uJ</text>
<rect x="370.0" y="178.25640835522256" width="80.0" height="211.74359164477744" fill="#E45756" stroke="none" />
<rect x="370.0" y="139.98758620436675" width="80.0" height="38.268822150855804" fill="#72B7B2" stroke="none" />
<rect x="370.0" y="106.30865594491722" width="80.0" height="33.67893025944953" fill="#54A24B" stroke="none" />
<rect x="370.0" y="55" width="80.0" height="335" fill="none" stroke="#9ECAE9" stroke-width="1.5" />
<text x="410.0" y="412" font-size="12" font-family="sans-serif" text-anchor="middle">DeepFlow</text>
<text x="410.0" y="47" font-size="11" font-family="monospace" text-anchor="middle" fill="#333">5.221e+06 uJ</text>
<rect x="610.0" y="198.48762289379667" width="80.0" height="191.51237710620333" fill="#E45756" stroke="none" />
<rect x="610.0" y="120.84426766377807" width="80.0" height="77.6433552300186" fill="#72B7B2" stroke="none" />
<rect x="610.0" y="85.4545454545455" width="80.0" height="35.389722209232566" fill="#54A24B" stroke="none" />
<rect x="610.0" y="55" width="80.0" height="335" fill="none" stroke="#F58518" stroke-width="1.5" />
<text x="650.0" y="412" font-size="12" font-family="sans-serif" text-anchor="middle">NCU</text>
<text x="650.0" y="47" font-size="11" font-family="monospace" text-anchor="middle" fill="#333">5.605e+06 uJ</text>
</svg>