<svg xmlns="http://www.w3.org/2000/svg" width="1200" height="520" viewBox="0 0 1200 520">
<rect x="0" y="0" width="1200" height="520" fill="white" />
<text x="40" y="30" font-size="18" font-family="sans-serif" font-weight="600">prefill aten::mm memory access (GEMMCalc vs DeepFlow vs NCU)</text>
<rect x="870" y="20" width="12" height="12" fill="#4C78A8"/>
<text x="888" y="31" font-size="12" font-family="sans-serif">GEMMCalc</text>
<rect x="980" y="20" width="12" height="12" fill="#9ECAE9"/>
<text x="998" y="31" font-size="12" font-family="sans-serif">DeepFlow</text>
<rect x="1090" y="20" width="12" height="12" fill="#F58518"/>
<text x="1108" y="31" font-size="12" font-family="sans-serif">NCU</text>
<rect x="40" y="50" width="353" height="390" fill="#ffffff" stroke="#dddddd" />
<text x="48" y="68" font-size="14" font-family="sans-serif" font-weight="600">DRAM (32B sectors)</text>
<line x1="85" y1="80" x2="85" y2="405" stroke="#333" />
<line x1="85" y1="405" x2="383" y2="405" stroke="#333" />
<line x1="85" y1="80.0" x2="383" y2="80.0" stroke="#eee" />
<text x="79" y="80.0" font-size="10" font-family="monospace" text-anchor="end" dominant-baseline="middle">4.226e+08</text>
<line x1="85" y1="161.25" x2="383" y2="161.25" stroke="#eee" />
<text x="79" y="161.25" font-size="10" font-family="monospace" text-anchor="end" dominant-baseline="middle">3.170e+08</text>
<line x1="85" y1="242.5" x2="383" y2="242.5" stroke="#eee" />
<text x="79" y="242.5" font-size="10" font-family="monospace" text-anchor="end" dominant-baseline="middle">2.113e+08</text>
<line x1="85" y1="323.75" x2="383" y2="323.75" stroke="#eee" />
<text x="79" y="323.75" font-size="10" font-family="monospace" text-anchor="end" dominant-baseline="middle">1.057e+08</text>
<line x1="85" y1="405.0" x2="383" y2="405.0" stroke="#eee" />
<text x="79" y="405.0" font-size="10" font-family="monospace" text-anchor="end" dominant-baseline="middle">0</text>
<text x="159.5" y="425" font-size="11" font-family="sans-serif" text-anchor="middle">Load</text>
<rect x="129.5" y="80.42385760979073" width="24.0" height="324.57614239020927" fill="#4C78A8" />
<rect x="159.5" y="81.78455256275026" width="24.0" height="323.21544743724974" fill="#9ECAE9" />
<rect x="189.5" y="80.0" width="24.0" height="325.0" fill="#F58518" />
<text x="308.5" y="425" font-size="11" font-family="sans-serif" text-anchor="middle">Store</text>
<rect x="278.5" y="399.6627370421531" width="24.0" height="5.337262957846922" fill="#4C78A8" />
<rect x="308.5" y="395.0766910895859" width="24.0" height="9.92330891041412" fill="#9ECAE9" />
<rect x="338.5" y="404.6203650992178" width="24.0" height="0.3796349007821864" fill="#F58518" />
<rect x="423" y="50" width="353" height="390" fill="#ffffff" stroke="#dddddd" />
<text x="431" y="68" font-size="14" font-family="sans-serif" font-weight="600">L2 (32B sectors)</text>
<line x1="468" y1="80" x2="468" y2="405" stroke="#333" />
<line x1="468" y1="405" x2="766" y2="405" stroke="#333" />
<line x1="468" y1="80.0" x2="766" y2="80.0" stroke="#eee" />
<text x="462" y="80.0" font-size="10" font-family="monospace" text-anchor="end" dominant-baseline="middle">1.327e+09</text>
<line x1="468" y1="161.25" x2="766" y2="161.25" stroke="#eee" />
<text x="462" y="161.25" font-size="10" font-family="monospace" text-anchor="end" dominant-baseline="middle">9.953e+08</text>
<line x1="468" y1="242.5" x2="766" y2="242.5" stroke="#eee" />
<text x="462" y="242.5" font-size="10" font-family="monospace" text-anchor="end" dominant-baseline="middle">6.636e+08</text>
<line x1="468" y1="323.75" x2="766" y2="323.75" stroke="#eee" />
<text x="462" y="323.75" font-size="10" font-family="monospace" text-anchor="end" dominant-baseline="middle">3.318e+08</text>
<line x1="468" y1="405.0" x2="766" y2="405.0" stroke="#eee" />
<text x="462" y="405.0" font-size="10" font-family="monospace" text-anchor="end" dominant-baseline="middle">0</text>
<text x="542.5" y="425" font-size="11" font-family="sans-serif" text-anchor="middle">Load</text>
<rect x="512.5" y="80.0" width="24.0" height="325.0" fill="#4C78A8" />
<rect x="542.5" y="297.8543209876543" width="24.0" height="107.14567901234568" fill="#9ECAE9" />
<rect x="572.5" y="87.15520400059074" width="24.0" height="317.84479599940926" fill="#F58518" />
<text x="691.5" y="425" font-size="11" font-family="sans-serif" text-anchor="middle">Store</text>
<rect x="661.5" y="402.27310956790126" width="24.0" height="2.7268904320987652" fill="#4C78A8" />
<rect x="691.5" y="401.8397762345679" width="24.0" height="3.160223765432099" fill="#9ECAE9" />
<rect x="721.5" y="400.81256553744095" width="24.0" height="4.187434462559076" fill="#F58518" />
<rect x="806" y="50" width="353" height="390" fill="#ffffff" stroke="#dddddd" />
<text x="814" y="68" font-size="14" font-family="sans-serif" font-weight="600">SHMEM (bytes)</text>
<line x1="851" y1="80" x2="851" y2="405" stroke="#333" />
<line x1="851" y1="405" x2="1149" y2="405" stroke="#333" />
<line x1="851" y1="80.0" x2="1149" y2="80.0" stroke="#eee" />
<text x="845" y="80.0" font-size="10" font-family="monospace" text-anchor="end" dominant-baseline="middle">9.171e+10</text>
<line x1="851" y1="161.25" x2="1149" y2="161.25" stroke="#eee" />
<text x="845" y="161.25" font-size="10" font-family="monospace" text-anchor="end" dominant-baseline="middle">6.878e+10</text>
<line x1="851" y1="242.5" x2="1149" y2="242.5" stroke="#eee" />
<text x="845" y="242.5" font-size="10" font-family="monospace" text-anchor="end" dominant-baseline="middle">4.585e+10</text>
<line x1="851" y1="323.75" x2="1149" y2="323.75" stroke="#eee" />
<text x="845" y="323.75" font-size="10" font-family="monospace" text-anchor="end" dominant-baseline="middle">2.293e+10</text>
<line x1="851" y1="405.0" x2="1149" y2="405.0" stroke="#eee" />
<text x="845" y="405.0" font-size="10" font-family="monospace" text-anchor="end" dominant-baseline="middle">0</text>
<text x="925.5" y="425" font-size="11" font-family="sans-serif" text-anchor="middle">Load</text>
<rect x="895.5" y="212.88154457978553" width="24.0" height="192.11845542021447" fill="#4C78A8" />
<rect x="925.5" y="312.85421036270543" width="24.0" height="92.1457896372946" fill="#9ECAE9" />
<rect x="955.5" y="80.0" width="24.0" height="325.0" fill="#F58518" />
<text x="1074.5" y="425" font-size="11" font-family="sans-serif" text-anchor="middle">Store</text>
<rect x="1044.5" y="405.0" width="24.0" height="0.0" fill="#4C78A8" />
<rect x="1074.5" y="192.48986132797845" width="24.0" height="212.51013867202155" fill="#9ECAE9" />
<rect x="1104.5" y="399.95747117401356" width="24.0" height="5.042528825986444" fill="#F58518" />
</svg>